<?xml version="1.0" encoding="UTF-8" standalone="no"?>
<svg
   xmlns:sketch="http://www.bohemiancoding.com/sketch/ns"
   xmlns:svg="http://www.w3.org/2000/svg"
   xmlns="http://www.w3.org/2000/svg"
   xmlns:sodipodi="http://sodipodi.sourceforge.net/DTD/sodipodi-0.dtd"
   xmlns:inkscape="http://www.inkscape.org/namespaces/inkscape"
   width="128px"
   height="128px"
   viewBox="0 0 128 128"
   version="1.1"
   id="svg2"
   inkscape:version="0.91 r13725">
  <sodipodi:namedview
     pagecolor="#ffffff"
     bordercolor="#666666"
     borderopacity="1"
     objecttolerance="10"
     gridtolerance="10"
     guidetolerance="10"
     inkscape:pageopacity="0"
     inkscape:pageshadow="2"
     inkscape:window-width="1319"
     inkscape:window-height="748"
     id="namedview14"
     showgrid="false"
     inkscape:zoom="1.84375"
     inkscape:cx="-8.6779662"
     inkscape:cy="66.711864"
     inkscape:window-x="284"
     inkscape:window-y="131"
     inkscape:window-maximized="0"
     inkscape:current-layer="svg2" />
  <defs
     id="defs8">
    <linearGradient
       id="linearGradient4153"
       x1="0"
       y1="0"
       y2="1"
       x2="0">
      <stop
         style="stop-color:#0095dd;stop-opacity:1"
         offset="0"
         id="stop3763" />
      <stop
         style="stop-color:#00539f;stop-opacity:1"
         offset="1"
         id="stop3765" />
    </linearGradient>
  </defs>
  <circle
     style="fill:url(#linearGradient4153);fill-opacity:1;fill-rule:evenodd;stroke:none"
     id="path2991"
     cx="129.35593"
     cy="128.27118"
     r="63.18644"
     transform="translate(-65.355927,-64.271179)" />
  <g
     id="Page-1"
     sketch:type="MSPage"
     transform="matrix(0.9,0,0,0.9,6.4,6.4)"
     style="fill:none;stroke:none">
    <g
       id="remote"
       sketch:type="MSLayerGroup"
       transform="translate(6,6)">
      <g
         id="g4596"
         transform="matrix(1.1111111,0,0,1.1111111,-64.787194,36.455744)">
        <g
           transform="translate(-501.0002,-381)"
           style="display:inline"
           inkscape:label="status"
           id="layer9" />
        <g
           transform="translate(-501.0002,-381)"
           style="display:inline"
           inkscape:label="devices"
           id="layer10" />
        <g
           transform="translate(-501.0002,-381)"
           inkscape:label="apps"
           id="layer11" />
        <g
           transform="translate(-501.0002,-381)"
           style="display:inline"
           inkscape:label="places"
           id="layer13" />
        <g
           transform="translate(-501.0002,-381)"
           inkscape:label="mimetypes"
           id="layer14" />
        <g
           transform="translate(-501.0002,-381)"
           style="display:inline"
           inkscape:label="emotes"
           id="g71291" />
        <g
           transform="translate(-501.0002,-381)"
           style="display:inline"
           inkscape:label="categories"
           id="g4953" />
        <g
           transform="translate(-501.0002,-381)"
           style="display:inline"
           inkscape:label="actions"
           id="layer12" />
      </g>
    </g>
  </g>
  <path
     inkscape:connector-curvature="0"
     id="path4597-1"
     d="m 64.000012,24.624987 c -17.736806,0 -32.734575,11.95712 -37.617187,28.125001 l 11.777343,0 c 4.350375,-9.928182 14.277319,-16.875 25.839844,-16.875 11.562525,0 21.489469,6.946818 25.839844,16.875 l 4.677734,0 c -1.283995,0.172232 -3.064088,0.177815 -5.582031,0.177734 l -8.085938,0 c -2.945137,2.82e-4 -5.624718,2.679863 -5.625,5.625 -0.045,0.408375 -0.045,0.821982 0,1.230469 l 0,4.394531 33.749999,0 0,-5.625 0,-22.5 c 0.0337,-0.350437 0.0337,-0.704138 0,-1.054687 l 0,-4.570314 -4.57031,0 c -0.51525,-0.13275 -1.04991,-0.192656 -1.58203,-0.175781 -0.23794,0.045 -0.47307,0.102094 -0.70313,0.175781 -2.515216,0.563288 -4.456572,3.048189 -4.394529,5.625001 l 0,7.890625 C 90.858589,32.425949 78.324524,24.624987 64.000012,24.624987 Z m -44.974609,39.375001 0,5.625 0,22.5 c -0.03375,0.350437 -0.03375,0.704137 0,1.054688 l 0,4.570312 4.570312,0 c 0.515251,0.13275 1.049906,0.192656 1.582032,0.175781 0.237937,-0.045 0.473062,-0.102093 0.703125,-0.175781 2.515219,-0.563288 4.456575,-3.048188 4.394531,-5.625 l 0,-8.068359 c 6.866014,11.517472 19.400039,19.318361 33.724609,19.318361 17.736806,0 32.734576,-11.957122 37.617188,-28.125002 l -11.777344,0 c -4.350375,9.92818 -14.277319,16.875 -25.839844,16.875 -11.560969,0 -21.4866,-6.945053 -25.837891,-16.871094 0.315642,-4.3e-4 0.560733,-0.0039 0.902344,-0.0039 l 8.085938,0 c 2.945137,-2.82e-4 5.624718,-2.679863 5.625,-5.625 0.045,-0.408376 0.045,-0.821981 0,-1.230469 l 0,-4.394531 -33.75,0 z"
     style="fill:#bcc6c5;stroke:none" />
</svg>
